<?xml version="1.0" standalone="no"?>
<svg viewBox="0 0 200 200" xmlns="http://www.w3.org/2000/svg">
  <path fill="#D0E2FF" d="M42.3,-61.4C56.1,-57,69.3,-47.3,71.2,-34.9C73.2,-22.5,63.8,-7.3,55.2,3.4C46.6,14.1,38.7,20.4,32.9,30.5C27.2,40.6,23.7,54.5,15.5,60.4C7.4,66.2,-5.4,63.9,-18.7,61.1C-32,58.3,-45.9,55,-54.1,46.4C-62.3,37.8,-64.9,23.7,-65,10.5C-65,-2.7,-62.6,-15.1,-57.4,-26.1C-52.2,-37.1,-44.3,-46.8,-34.2,-52.9C-24.2,-58.9,-12.1,-61.4,1.1,-63.1C14.3,-64.8,28.6,-65.7,42.3,-61.4Z" transform="translate(100 100)" />
</svg>
